<svg xmlns="http://www.w3.org/2000/svg" width="46" height="54" viewBox="0 0 46 54" aria-hidden="true">
      <title stroke="none" fill="#000000" stroke-width="1px">Kirby Logo</title>
      <g fill="none" fill-rule="evenodd" stroke="none" stroke-width="1px">
        <path class="logo-hexagon-outline" stroke="#ffffff" stroke-width="2px" d="M23 7L6 16.66v19.3l17 9.66 17-9.66v-19.3z" fill="rgba(0, 0, 0, 0)"></path>
        <path class="logo-hexagon-k" stroke="rgba(0, 0, 0, 0)" fill="rgba(0, 0, 0, 0)" d="M23,7,6,16.66V36l17,9.66L40,36V16.66Zm8,20-5,2.59V30h5v4H15V30h5v-.44L15,27V22l8,4.3L31,22Z" stroke-width="1px"></path>
        <path class="logo-focus-outline" stroke="rgba(0, 0, 0, 0)" stroke-width="2px" d="M23 1.84L1.5 14.083v24.46L23 50.786l21.5-12.243v-24.46z" fill="none"></path>
        <path class="logo-k" fill="#ffffff" fill-rule="nonzero" d="M31 27l-5 2.59V30h5v4H15v-4h5v-.437L15 27v-5l8 4.297L31 22" stroke="none" stroke-width="1px"></path>
      </g>
    </svg>